<svg id="Слой_1" data-name="Слой 1" xmlns="http://www.w3.org/2000/svg" viewBox="0 0 1000 1000"><defs><style>.cls-1{fill:#fff;}.cls-2{fill:#898989;}</style></defs><path class="cls-1" d="M103.22,672.6a1.76,1.76,0,0,0-.51-1.3,5.06,5.06,0,0,0-2.66-.74V669.2h37.61a37.22,37.22,0,0,1,13.6,2.27,25.4,25.4,0,0,1,9.51,6.29,26.28,26.28,0,0,1,5.61,9.46A35.88,35.88,0,0,1,168.25,699a32.1,32.1,0,0,1-2,11.16,26.75,26.75,0,0,1-6,9.51,29.59,29.59,0,0,1-10,6.63,35.74,35.74,0,0,1-13.87,2.49H100.05v-1.36a5.08,5.08,0,0,0,2.66-.73,1.78,1.78,0,0,0,.51-1.31Zm31.38,42.82q9,0,12.92-4.58t4-11.84q0-7.25-4-11.84t-12.92-4.59H120.21v32.85Z"/><path class="cls-1" d="M201,726.3a1,1,0,0,0,.39.85,3.15,3.15,0,0,0,1.65.28v1.36H183v-1.36a3.65,3.65,0,0,0,1.81-.73,5.3,5.3,0,0,0,1.14-1.87c.15-.38.52-1.4,1.13-3.06s1.4-3.76,2.38-6.29,2.08-5.34,3.29-8.44,2.41-6.25,3.62-9.46,2.4-6.34,3.57-9.4,2.21-5.79,3.12-8.21,1.64-4.38,2.2-5.89.85-2.31.85-2.38c0-.38-.24-.64-.73-.8a11.28,11.28,0,0,0-1.53-.34V669.2h29.56v1.36a6.4,6.4,0,0,0-1.47.34c-.38.16-.56.53-.56,1.14a24.38,24.38,0,0,0,1.07,2.94q1.08,2.71,2.78,7.08t3.91,9.86q2.2,5.49,4.58,11.21t4.59,11.16q2.21,5.44,4,9.75a11.54,11.54,0,0,0,1.53,2.71,2.12,2.12,0,0,0,1.65.68v1.36H233.16v-1.36c1.43-.07,2.15-.52,2.15-1.36a14.68,14.68,0,0,0-.57-1.53c-.37-.94-.79-2-1.24-3.17s-.89-2.28-1.3-3.34a14.36,14.36,0,0,1-.74-2.15H204.61c-.75,2-1.36,3.7-1.81,5s-.82,2.31-1.08,3.06-.45,1.31-.57,1.64A2.73,2.73,0,0,0,201,726.3Zm27.53-19.48-11-27-10.08,27Z"/><path class="cls-1" d="M295.12,725.39a1.78,1.78,0,0,0,.51,1.31,5.08,5.08,0,0,0,2.66.73v1.36H275v-1.36a5.08,5.08,0,0,0,2.66-.73,1.78,1.78,0,0,0,.51-1.31V672.6a1.76,1.76,0,0,0-.51-1.3,5.06,5.06,0,0,0-2.66-.74V669.2h41.46q12.58,0,18.24,4.59T340.33,688q0,7.82-4.59,12.24a26.61,26.61,0,0,1-11.61,6.34l13.37,18.8a3.89,3.89,0,0,0,3.28,2v1.36H317.21v-1.36c1.67-.07,2.5-.75,2.5-2a6.3,6.3,0,0,0-.91-1.58c-.6-.91-1.36-2-2.26-3.29s-1.91-2.66-3-4.13l-3.17-4.25q-1.53-2-2.66-3.63c-.76-1-1.25-1.77-1.47-2.15H295.12Zm19-31c3.33,0,5.61-.62,6.86-1.87a6,6,0,0,0,0-8.72c-1.25-1.24-3.53-1.87-6.86-1.87h-19v12.46Z"/><path class="cls-1" d="M407.16,727.43a5.56,5.56,0,0,0,1.59-.17c.37-.11.56-.54.56-1.3a7.18,7.18,0,0,0-1-2q-1-1.7-2.6-4.19c-1.06-1.66-2.23-3.44-3.51-5.32s-2.49-3.7-3.63-5.44-2.15-3.25-3.06-4.53-1.51-2.16-1.81-2.61l-11.1,10v13.59a1.78,1.78,0,0,0,.51,1.31,5.08,5.08,0,0,0,2.66.73v1.36H362.41v-1.36a5.09,5.09,0,0,0,2.67-.73,1.78,1.78,0,0,0,.51-1.31V672.6a1.76,1.76,0,0,0-.51-1.3,5.07,5.07,0,0,0-2.67-.74V669.2h23.34v1.36a5.06,5.06,0,0,0-2.66.74,1.76,1.76,0,0,0-.51,1.3V693h.79q3.4-3.29,7.31-6.79t7.19-6.52c2.19-2,4-3.7,5.5-5.1s2.21-2.24,2.21-2.54c0-.68-.19-1.08-.57-1.19a9.06,9.06,0,0,0-1.47-.29V669.2h28.77v1.36a10.53,10.53,0,0,0-1.87.34,4.76,4.76,0,0,0-1.35.68c-.42.31-.88.66-1.37,1.08L426,674.19l-19.6,16.88,23.11,34.55a3.54,3.54,0,0,0,1.7,1.59,7.17,7.17,0,0,0,1.93.22v1.36H407.16Z"/><path class="cls-1" d="M556.7,725.39a1.78,1.78,0,0,0,.51,1.31,5.08,5.08,0,0,0,2.66.73v1.36H536.54v-1.36a5.08,5.08,0,0,0,2.66-.73,1.77,1.77,0,0,0,.5-1.31V704.44H510.25v20.95a1.78,1.78,0,0,0,.51,1.31,5.08,5.08,0,0,0,2.66.73v1.36H490.09v-1.36a5.08,5.08,0,0,0,2.66-.73,1.78,1.78,0,0,0,.51-1.31V672.6a1.76,1.76,0,0,0-.51-1.3,5.06,5.06,0,0,0-2.66-.74V669.2h23.33v1.36a5.06,5.06,0,0,0-2.66.74,1.76,1.76,0,0,0-.51,1.3v18H539.7v-18a1.75,1.75,0,0,0-.5-1.3,5.06,5.06,0,0,0-2.66-.74V669.2h23.33v1.36a5.06,5.06,0,0,0-2.66.74,1.76,1.76,0,0,0-.51,1.3Z"/><path class="cls-1" d="M615.61,668.52a46,46,0,0,1,13.65,2,33.49,33.49,0,0,1,11.21,5.83,28,28,0,0,1,7.65,9.52,31.82,31.82,0,0,1,0,26.28,28,28,0,0,1-7.65,9.52,31.46,31.46,0,0,1-11.21,5.66,52.38,52.38,0,0,1-27.3,0,31.59,31.59,0,0,1-11.22-5.66,28.16,28.16,0,0,1-7.65-9.52,31.92,31.92,0,0,1,0-26.28,28.16,28.16,0,0,1,7.65-9.52A33.63,33.63,0,0,1,602,670.51,45.92,45.92,0,0,1,615.61,668.52Zm0,13.83a21.79,21.79,0,0,0-7.08,1.13,18.39,18.39,0,0,0-5.89,3.23,15.37,15.37,0,0,0-4.08,5.21,17.15,17.15,0,0,0,0,14.16,15.47,15.47,0,0,0,4.08,5.21,18.39,18.39,0,0,0,5.89,3.23,22.74,22.74,0,0,0,14.16,0,18.39,18.39,0,0,0,5.89-3.23,15.47,15.47,0,0,0,4.08-5.21,17.15,17.15,0,0,0,0-14.16,15.37,15.37,0,0,0-4.08-5.21,18.39,18.39,0,0,0-5.89-3.23A21.79,21.79,0,0,0,615.61,682.35Z"/><path class="cls-1" d="M691.51,725.39a1.78,1.78,0,0,0,.51,1.31,5.08,5.08,0,0,0,2.66.73v1.36H671.34v-1.36a5.09,5.09,0,0,0,2.67-.73,1.78,1.78,0,0,0,.51-1.31V672.6a1.76,1.76,0,0,0-.51-1.3,5.07,5.07,0,0,0-2.67-.74V669.2h41.47q12.57,0,18.24,4.59T736.71,688q0,7.82-4.59,12.24a26.61,26.61,0,0,1-11.61,6.34l13.37,18.8a3.92,3.92,0,0,0,3.28,2v1.36H713.6v-1.36q2.49-.1,2.49-2a6.44,6.44,0,0,0-.9-1.58c-.61-.91-1.36-2-2.27-3.29s-1.91-2.66-3-4.13l-3.17-4.25q-1.53-2-2.67-3.63c-.75-1-1.24-1.77-1.47-2.15h-11.1Zm19-31q5,0,6.86-1.87a6,6,0,0,0,0-8.72c-1.25-1.24-3.54-1.87-6.86-1.87h-19v12.46Z"/><path class="cls-1" d="M763.78,705.8a8.59,8.59,0,0,0-.22,2.38c0,.75.7,1.6,2.09,2.54a25.76,25.76,0,0,0,5.44,2.67,48.8,48.8,0,0,0,7.65,2.09,44.68,44.68,0,0,0,8.72.85q8.5,0,12.46-2c2.64-1.32,4-3.23,4-5.72q0-2-3.46-2.89a62.17,62.17,0,0,0-8.66-1.36q-5.22-.51-11.22-1.13A56.87,56.87,0,0,1,769.33,701a23,23,0,0,1-8.66-4.76,10.89,10.89,0,0,1-3.46-8.55,15.67,15.67,0,0,1,2-7.82,18.32,18.32,0,0,1,5.56-6,28.34,28.34,0,0,1,8.66-3.91,42.48,42.48,0,0,1,11.33-1.42,73.84,73.84,0,0,1,10.76.74c3.33.49,6.27,1,8.84,1.64s4.72,1.16,6.46,1.65a15.86,15.86,0,0,0,3.74.73,3,3,0,0,0,1.81-.51,7.37,7.37,0,0,0,1.25-1.19l1.24.46L811,687.78l-1.37-.68v-1.24c0-.68-.73-1.38-2.2-2.1a28.87,28.87,0,0,0-5.61-1.92,70.28,70.28,0,0,0-7.59-1.42,60.67,60.67,0,0,0-8.16-.57q-7.36,0-10.31,1.7t-2.94,3.63a3.09,3.09,0,0,0,2,2.89,18.58,18.58,0,0,0,5.32,1.41q3.28.45,7.48.74t8.61.85a79.79,79.79,0,0,1,8.61,1.58,26.87,26.87,0,0,1,7.47,3,16,16,0,0,1,5.33,5.21,14.89,14.89,0,0,1,2,8.1,18.75,18.75,0,0,1-1.53,7.36,16.55,16.55,0,0,1-5.21,6.52,27.91,27.91,0,0,1-9.86,4.58,58.48,58.48,0,0,1-15.35,1.7,94.3,94.3,0,0,1-12.29-.68,70.69,70.69,0,0,1-8.78-1.64c-2.42-.64-4.32-1.23-5.72-1.76a10.22,10.22,0,0,0-3.12-.79,1.71,1.71,0,0,0-1.19.46c-.34.3-.7.64-1.07,1l-1.36-.35,8.38-20.16Z"/><path class="cls-1" d="M884.66,707a3.57,3.57,0,0,0-1-1.87,3.39,3.39,0,0,0-2.44-.73H860.19V715h36.37a1.6,1.6,0,0,0,1.36-.62,6.84,6.84,0,0,0,.68-2.78H900V731H898.6a3,3,0,0,0-.68-1.82,2.33,2.33,0,0,0-1.36-.34H840v-1.36a5.09,5.09,0,0,0,2.67-.73,1.78,1.78,0,0,0,.51-1.31V672.6a1.76,1.76,0,0,0-.51-1.3,5.07,5.07,0,0,0-2.67-.74V669.2h56.54a1.57,1.57,0,0,0,1.36-.62,6.15,6.15,0,0,0,.68-2.55H900v19.71H898.6a6.25,6.25,0,0,0-.68-2.55,1.6,1.6,0,0,0-1.36-.62H860.19V692h21.07a3.39,3.39,0,0,0,2.44-.73,3.54,3.54,0,0,0,1-1.87H886V707Z"/><path class="cls-2" d="M431.71,825.61a4,4,0,0,0,2.11-.58,1.4,1.4,0,0,0,.4-1V791l-.18-.18-16,34.8L402.3,790.45h-.18V824a1.4,1.4,0,0,0,.4,1,4,4,0,0,0,2.11.58v1.08H388.84v-1.08A4,4,0,0,0,391,825a1.4,1.4,0,0,0,.4-1V782.2a1.39,1.39,0,0,0-.4-1,4,4,0,0,0-2.11-.58v-1.08h23.41v1.08c-1.44.06-2.15.6-2.15,1.61,0,.06.18.54.53,1.44s.83,2,1.4,3.32,1.19,2.73,1.88,4.26,1.34,3,2,4.39l1.66,3.72c.48,1.08.81,1.8,1,2.15q1.52-3.4,3.14-6.63c1.07-2.15,2-4.13,2.91-5.92s1.57-3.29,2.11-4.49a8.31,8.31,0,0,0,.81-2.24c0-1-.72-1.55-2.16-1.61v-1.08h24.31v1.08a4,4,0,0,0-2.11.58,1.39,1.39,0,0,0-.4,1V824a1.4,1.4,0,0,0,.4,1,4,4,0,0,0,2.11.58v1.08H431.71Z"/><path class="cls-2" d="M510.9,825.61A4,4,0,0,0,513,825a1.4,1.4,0,0,0,.4-1V791l-.18-.18-16,34.8-15.78-35.16h-.18V824a1.4,1.4,0,0,0,.4,1,4,4,0,0,0,2.1.58v1.08H468v-1.08a4,4,0,0,0,2.11-.58,1.4,1.4,0,0,0,.4-1V782.2a1.39,1.39,0,0,0-.4-1,4,4,0,0,0-2.11-.58v-1.08h23.41v1.08c-1.44.06-2.15.6-2.15,1.61,0,.06.18.54.53,1.44s.83,2,1.4,3.32,1.19,2.73,1.88,4.26,1.34,3,2,4.39l1.66,3.72c.48,1.08.81,1.8,1,2.15q1.51-3.4,3.14-6.63c1.07-2.15,2-4.13,2.91-5.92s1.57-3.29,2.11-4.49a8.31,8.31,0,0,0,.81-2.24c0-1-.72-1.55-2.16-1.61v-1.08h24.31v1.08a4,4,0,0,0-2.11.58,1.39,1.39,0,0,0-.4,1V824a1.4,1.4,0,0,0,.4,1,4,4,0,0,0,2.11.58v1.08H510.9Z"/><path class="cls-2" d="M558.26,824.71a.78.78,0,0,0,.31.68,2.5,2.5,0,0,0,1.3.22v1.08H544v-1.08a2.94,2.94,0,0,0,1.44-.58,4.3,4.3,0,0,0,.9-1.48c.12-.3.41-1.11.89-2.42s1.11-3,1.89-5,1.64-4.23,2.6-6.68,1.91-5,2.87-7.49,1.89-5,2.82-7.45,1.75-4.58,2.47-6.5l1.75-4.66c.45-1.2.67-1.83.67-1.89,0-.29-.19-.5-.58-.62a7.88,7.88,0,0,0-1.21-.27v-1.08h23.4v1.08a4.85,4.85,0,0,0-1.16.27c-.3.12-.45.42-.45.89a19.77,19.77,0,0,0,.85,2.34c.57,1.43,1.31,3.3,2.2,5.6s1.93,4.9,3.1,7.8,2.37,5.87,3.63,8.88,2.46,6,3.63,8.84,2.22,5.44,3.18,7.71a8.38,8.38,0,0,0,1.22,2.15,1.65,1.65,0,0,0,1.29.54v1.08H583.73v-1.08c1.13-.06,1.7-.42,1.7-1.08a11.07,11.07,0,0,0-.45-1.21c-.3-.74-.63-1.58-1-2.51s-.7-1.81-1-2.64a12.42,12.42,0,0,1-.58-1.71H561.13c-.6,1.62-1.08,2.93-1.44,3.95l-.85,2.42-.45,1.3A2.13,2.13,0,0,0,558.26,824.71Zm21.79-15.42-8.7-21.35-8,21.35Z"/><polygon class="cls-2" points="628.06 795.64 854.5 802.7 628.06 809.75 628.06 795.64"/><polygon class="cls-2" points="345.93 809.75 119.5 802.7 345.93 795.64 345.93 809.75"/><path class="cls-1" d="M697.9,295.5,624,321.21c-1.91-4.4-4-8.69-6.24-12.91l63.91-29.08-46.45-46.45L587.3,265.88c-3.36-3.53-6.82-6.95-10.44-10.21L621,219.54l-46-43.07-46.43,48.67a154,154,0,0,0-16.25-6.33l-1.14-.73,30.54-44.77H436.38L469,207h0l0,0-18.29,27.54-29,42.46L371.5,350.71l-5.31,7.79-26.06,38.11,13.32,16.64q.8,1.06,1.65,2.07l.41.51v-.06a42.73,42.73,0,0,0,3.4,3.46,40.76,40.76,0,0,0,61.19-7.86,53.5,53.5,0,0,1,14.76-19.71,166.74,166.74,0,0,0-34.24,15c5.75-8.05,13.21-15.14,20.74-21.44,17.36-14.52,38.13-25.1,60.53-28.74a113,113,0,0,1,41.87,1.1,44.54,44.54,0,0,0,4.56-29.47s-.81-18.63-26.95-39.13a131.73,131.73,0,0,0-26.78-16.49l5.25,27.81-29.42,6.79-17.53,4,23.82-34.89,5.11-7.49h0c.39-.55.77-1.11,1.15-1.66l7.65-11.22,0,.1a.83.83,0,0,1,.08-.12,123.67,123.67,0,0,1,37.93,17,121.4,121.4,0,0,1,34,34.66c.38.59.73,1.2,1.1,1.8,0,.06,0,.13-.05.2a113.07,113.07,0,0,1,6,12.45,116.11,116.11,0,0,1-1.81,91.89,118.22,118.22,0,0,1-27.14,37.6,114.75,114.75,0,0,1-9.48,7.88l-.06,0c0,.07-.09.12-.13.19-.88.65-1.75,1.32-2.65,1.95l-.38.12c-45.34-23.56-72-11.61-82.73-3.88q-2.61,2.17-5.08,4.35c-.31.33-.46.51-.46.51l-.1,0A316.21,316.21,0,0,0,396,485.76l-1,.11c-.32-10.12,6.43-19.11,10.79-26.25-29.67-2.92-49.06,6.27-57.35,14.64L322,450.87c-.21-11.64-.69-23.28-1.14-34.92q-.79-20.06-1.31-40.1c-.69-25.86-1.19-51.73-2-77.59l25.63-27,27.56-29.35,27.56-29.35c9.2-9.76,16.73-21.22,25.88-31-9.89,9.08-19.85,18.08-29.67,27.22L365,236.06l-29.54,27.35L306.05,290.9l-1.88,1.76-.1,3c-.87,26.73-1.38,53.46-2.08,80.19q-.51,20.06-1.32,40.1c-.52,13.36-1.09,26.73-1.24,40.09l-.05,4.55,3.41,3.51c9.33,9.63,19,18.89,28.79,28.1s19.77,18.17,29.85,27.05,20.3,17.62,30.76,26.12,21,16.91,32,24.86h16.91l1.62-.78C577,499.13,583.73,386,584,377.88c-.82,87.31-38.12,150.23-75.71,191.57h76.11L697.9,447.2,631.17,452c1.47-4.8,2.72-9.69,3.81-14.65l62.92-4.53v-63.6l-58.8,15.21c-.3-4.86-.84-9.65-1.51-14.41l60.31-15.61ZM373.35,398.06l-.09,12s-2.2-1.8-5.08-4.44c-4.41-4.08-10.39-10.16-12.17-14.65l17.52-21.49Z"/><polygon class="cls-1" points="429.26 247.98 452.24 214.11 391.22 225.8 429.26 247.98"/></svg>