<svg xmlns="http://www.w3.org/2000/svg" version="1.0" width="980.000000pt" height="860.000000pt" viewBox="0 0 980.000000 860.000000" preserveAspectRatio="xMidYMid meet">

<g transform="translate(0.000000,860.000000) scale(0.100000,-0.100000)" fill="#ffffff" stroke="none">
<path d="M2565 8579 c-496 -50 -935 -194 -1265 -414 -280 -187 -568 -479 -779 -790 -254 -374 -451 -847 -501 -1200 -29 -211 -22 -578 16 -759 52 -253 195 -543 384 -781 163 -204 367 -387 976 -874 283 -225 396 -322 412 -350 26 -47 28 -90 6 -243 -21 -153 -35 -206 -99 -355 -82 -194 -99 -266 -99 -403 1 -103 4 -123 31 -197 37 -98 93 -186 206 -324 181 -223 265 -363 437 -729 55 -116 120 -242 145 -279 68 -104 184 -208 290 -263 113 -58 183 -79 387 -118 384 -73 667 -164 805 -258 150 -102 363 -186 552 -217 149 -25 377 -17 521 20 337 84 628 204 806 332 111 80 119 82 276 93 79 5 179 19 223 29 259 63 521 196 688 351 76 70 100 78 228 79 89 1 211 25 317 63 190 67 335 160 530 340 111 103 146 123 283 163 154 44 210 66 323 123 305 155 550 452 806 977 163 335 278 679 310 935 31 245 21 643 -21 855 -92 456 -333 1002 -617 1395 -104 145 -332 370 -502 497 -199 148 -281 197 -389 234 -46 16 -74 38 -166 128 -155 151 -266 227 -525 356 -481 241 -1127 431 -1760 520 -102 14 -200 31 -218 37 -21 6 -70 47 -130 108 -370 372 -1207 769 -1857 880 -210 35 -421 50 -694 49 -141 -1 -292 -5 -336 -10z m550 -419 c277 -13 400 -27 538 -61 245 -60 605 -191 862 -313 229 -109 475 -260 475 -291 0 -14 -80 -43 -160 -60 -125 -25 -548 -169 -835 -285 -162 -65 -530 -245 -695 -340 -165 -96 -355 -221 -459 -303 -228 -181 -484 -438 -583 -587 -62 -93 -241 -456 -302 -610 -124 -319 -185 -719 -170 -1117 5 -139 4 -193 -4 -193 -6 0 -73 50 -149 112 -76 61 -237 190 -358 287 -359 287 -565 511 -708 771 -145 265 -185 664 -106 1055 49 241 184 566 333 802 223 355 551 687 838 851 187 106 472 198 795 256 76 14 152 27 168 29 61 8 326 6 520 -3z m2637 -1066 c415 -51 1011 -210 1387 -369 172 -72 304 -138 460 -228 l123 -72 -128 -7 c-543 -31 -899 -83 -1358 -199 -640 -162 -1246 -420 -1764 -750 -113 -72 -167 -111 -385 -279 -56 -43 -87 -60 -108 -60 -101 0 -764 205 -1184 365 -110 42 -212 81 -227 87 -27 10 -27 10 -11 36 85 135 312 376 482 511 472 374 1198 720 1886 896 371 95 519 108 827 69z m2309 -1130 c236 -14 326 -29 377 -61 92 -58 282 -258 396 -416 137 -192 280 -466 374 -717 59 -158 127 -391 147 -505 20 -121 29 -399 16 -571 -38 -530 -422 -1335 -771 -1617 -82 -66 -257 -156 -321 -164 -45 -6 -44 -27 -10 162 35 189 43 298 39 483 -4 167 -15 232 -37 232 -12 0 -37 -78 -101 -313 -111 -410 -204 -612 -367 -798 -116 -133 -255 -234 -388 -284 -56 -21 -272 -61 -282 -52 -1 1 25 90 58 197 87 285 119 448 126 650 6 166 -7 322 -29 364 -10 19 -11 19 -25 0 -14 -19 -98 -275 -294 -892 l-103 -322 -120 -118 c-189 -184 -343 -272 -559 -317 -74 -16 -213 -20 -221 -7 -3 5 15 67 40 138 144 412 198 884 122 1077 -6 15 -14 27 -18 27 -4 0 -61 -161 -125 -357 -252 -771 -307 -933 -328 -965 -58 -85 -241 -192 -475 -277 -305 -111 -542 -137 -748 -82 -92 25 -209 86 -235 121 -19 27 -18 15 -94 885 -45 503 -82 844 -100 916 -74 295 -311 493 -840 702 -377 149 -401 164 -640 409 -203 207 -269 293 -284 368 -32 165 -42 528 -20 746 13 142 51 326 89 445 36 108 53 139 79 139 10 0 114 -36 231 -80 534 -201 1071 -364 1289 -391 192 -24 275 6 496 181 429 341 921 592 1573 804 466 151 1024 261 1427 280 109 5 397 -4 656 -20z m-5679 -2957 c165 -119 310 -192 628 -314 330 -127 481 -221 554 -345 32 -55 48 -149 80 -468 60 -598 93 -1056 78 -1078 -8 -11 -37 -6 -158 27 -82 22 -230 56 -329 76 -379 75 -409 97 -545 397 -162 358 -295 581 -509 852 -113 142 -125 162 -141 229 -17 64 -2 124 71 285 62 139 91 229 109 347 15 93 17 99 33 87 6 -5 65 -48 129 -95z" fill="#ffffff"/>
</g>
</svg>